<svg width="120" height="26" viewBox="0 0 120 26" fill="none" xmlns="http://www.w3.org/2000/svg">
<path d="M9.58547 17.6291C10.4458 16.4476 10.8665 14.7731 10.8878 13.0918H10.8929C10.8929 13.0619 10.8903 13.0312 10.8903 13.0013C10.8903 12.9714 10.8929 12.9406 10.8929 12.9107H10.8878C10.8665 11.2294 10.4449 9.55495 9.58547 8.37342C13.359 9.49856 16.5774 9.27388 18.8241 6.0753C19.7192 4.76648 20.8328 2.7238 22 0.5H12.2564C9.26074 0.5 6.31607 1.5175 4.08037 3.52088C2.65394 4.79894 1.6058 6.34014 0.904482 8.12311C0.307728 9.63953 0.0136012 11.2943 0.00255023 12.909H0C0 12.9389 0.00170015 12.9697 0.00170015 12.9996C0.00170015 13.0295 0 13.0602 0 13.0901H0.00255023C0.0136012 14.7057 0.307728 16.3596 0.903632 17.8769C1.60495 19.6599 2.65309 21.2011 4.07952 22.4791C6.31607 24.4825 9.25989 25.5 12.2556 25.5H21.9992C20.832 23.2762 19.7184 21.2335 18.8224 19.9264C16.5918 16.926 13.3505 16.8039 9.58377 17.6283L9.58547 17.6291Z" fill="url(#paint0_linear_2033_17567)"/>
<path d="M32 13C32 6.7091 36.8112 2.21851 43.2866 2.21851C46.8572 2.21851 49.8427 3.51309 51.7995 5.86964C51.8196 5.88987 51.8196 5.93032 51.7995 5.95055L48.7937 8.73189C48.7937 8.73189 48.7332 8.75211 48.713 8.73189C47.3211 7.15411 45.5863 6.33488 43.5287 6.33488C39.6353 6.33488 36.8818 9.07576 36.8818 13C36.8818 16.9242 39.6454 19.6651 43.5287 19.6651C45.5863 19.6651 47.3312 18.8458 48.713 17.2377C48.7332 17.2175 48.7736 17.2074 48.7937 17.2377L51.7995 20.019C51.7995 20.019 51.8297 20.0797 51.7995 20.1C49.8427 22.4869 46.8572 23.7814 43.2563 23.7814C36.8112 23.7713 32 19.2807 32 13Z" fill="black"/>
<path d="M52.543 13C52.543 6.81024 57.3837 2.21851 63.9801 2.21851C70.5764 2.21851 75.4172 6.76978 75.4172 13C75.4172 19.2302 70.546 23.7814 63.9801 23.7814C57.4141 23.7814 52.543 19.1998 52.543 13ZM70.5257 13C70.5257 9.0353 67.7146 6.33488 63.9801 6.33488C60.2455 6.33488 57.4344 9.04542 57.4344 13C57.4344 16.9545 60.2455 19.6651 63.9801 19.6651C67.7146 19.6651 70.5257 16.9545 70.5257 13Z" fill="black"/>
<path d="M96.9701 2.57084V23.4288C96.9701 23.4288 96.9398 23.4899 96.9095 23.4899H93.0438C93.0438 23.4899 93.0135 23.4899 93.0035 23.4696L82.7589 10.8774C82.7589 10.8774 82.658 10.857 82.658 10.9181V23.4288C82.658 23.4288 82.6277 23.4899 82.5974 23.4899H77.9546C77.9546 23.4899 77.894 23.4594 77.894 23.4288V2.57084C77.894 2.57084 77.9243 2.50977 77.9546 2.50977H81.8505C81.8505 2.50977 81.8808 2.50977 81.8909 2.53012L92.1153 15.1223C92.1153 15.1223 92.2162 15.1426 92.2162 15.0816V2.57084C92.2162 2.57084 92.2465 2.50977 92.2768 2.50977H96.9196C96.9196 2.50977 96.9802 2.5403 96.9802 2.57084H96.9701Z" fill="black"/>
<path d="M114.455 23.4594L109.487 16.2726C109.487 16.2726 109.416 16.242 109.396 16.2726L104.518 23.4594C104.518 23.4594 104.488 23.4797 104.468 23.4797H99.0743C99.0743 23.4797 99.0034 23.4288 99.0237 23.3881L106.643 12.8421C106.643 12.8421 106.653 12.7912 106.643 12.7708L99.4082 2.60138C99.4082 2.60138 99.4082 2.50977 99.4588 2.50977H104.802C104.802 2.50977 104.842 2.50977 104.852 2.53012L109.588 9.23848C109.588 9.23848 109.659 9.26902 109.679 9.23848L114.323 2.53012C114.323 2.53012 114.354 2.50977 114.374 2.50977H119.444C119.444 2.50977 119.514 2.56066 119.494 2.60138L112.32 12.6079C112.32 12.6079 112.31 12.6588 112.32 12.6792L120 23.3983C120 23.3983 120 23.4899 119.95 23.4899H114.526C114.526 23.4899 114.485 23.4899 114.475 23.4696L114.455 23.4594Z" fill="black"/>
<defs>
<linearGradient id="paint0_linear_2033_17567" x1="22" y1="13" x2="0" y2="13" gradientUnits="userSpaceOnUse">
<stop stop-color="#05DBFD"/>
<stop offset="1" stop-color="#11F99C"/>
</linearGradient>
</defs>
</svg>
